<?xml version="1.0" standalone="no"?><!DOCTYPE svg PUBLIC "-//W3C//DTD SVG 1.1//EN" "http://www.w3.org/Graphics/SVG/1.1/DTD/svg11.dtd"><svg width="100%" height="100%" viewBox="0 0 953 552" version="1.1" xmlns="http://www.w3.org/2000/svg" xmlns:xlink="http://www.w3.org/1999/xlink" xml:space="preserve" style="fill-rule:evenodd;clip-rule:evenodd;stroke-linejoin:round;stroke-miterlimit:1.41421;"><clipPath id="_clip1"><rect id="Blue Planet" x="0" y="0" width="952.574" height="551.533"/></clipPath><g clip-path="url(#_clip1)"><circle id="Ellipse 1" cx="476.129" cy="551.419" r="475.86" style="fill:url(#_Radial2);"/><circle id="Ellipse 11" cx="476.129" cy="629.35" r="334.537" style="fill:url(#_Radial3);"/><g id="Planet"><circle id="Ellipse 12" cx="476.129" cy="629.35" r="325.128" style="fill:#00b2ed;"/><clipPath id="_clip4"><circle id="Ellipse 13" cx="476.129" cy="629.35" r="325.128"/></clipPath><g clip-path="url(#_clip4)"><path id="Shape 1" d="M100.711,334.091c0,0 273.666,346.519 529.759,205.394c256.093,-141.125 325.504,21.715 480.156,77.348c154.651,55.633 279.76,42.899 279.76,42.899l-132.936,-311.342l-482.14,-87.097l-295.633,-18.2l-378.966,90.998Z" style="fill:#07bdee;"/><path id="Shape 11" d="M-353.375,918.736c0,0 309.106,-454.58 671.254,-278.33c362.149,176.25 428.81,-35.94 625.446,-111.599c196.636,-75.658 364.752,-62.22 364.752,-62.22l-127.75,405.703l-626.554,124.25l-389.697,30.674l-517.451,-108.478Z" style="fill:#07beee;"/><path id="Shape 12" d="M135.392,273.4c0,0 273.666,346.519 529.758,205.394c256.093,-141.125 325.505,21.715 480.156,77.348c154.651,55.633 279.76,42.899 279.76,42.899l-132.935,-311.341l-482.14,-87.098l-295.633,-18.2l-378.966,90.998Z" style="fill:#22cdfa;"/><path id="Shape 13" d="M278.448,269.105c0,0 119.585,231.11 231.491,136.987c111.906,-94.123 142.237,14.483 209.816,51.587c67.579,37.105 122.248,28.612 122.248,28.612l-58.089,-207.649l-210.683,-58.089l-129.184,-12.139l-165.599,60.691Z" style="fill:#45d2f9;"/><path id="Shape 14" d="M304.458,217.085c0,0 119.585,231.11 231.492,136.987c111.906,-94.123 142.237,14.482 209.815,51.587c67.579,37.104 122.249,28.611 122.249,28.611l-58.09,-207.648l-210.683,-58.09l-129.184,-12.138l-165.599,60.691Z" style="fill:#00b2ed;"/><circle id="Ellipse 14" cx="419.774" cy="629.35" r="325.128" style="fill:#fff;fill-opacity:0.0843373;"/></g><circle id="Ellipse 15" cx="476.129" cy="629.35" r="325.128" style="fill:none;stroke-width:0.75px;stroke:#190629;"/><circle id="Ellipse 16" cx="476.129" cy="629.35" r="325.128" style="fill:url(#_Radial5);stroke-width:0.75px;stroke:#190629;stroke-opacity:0.271086;"/></g></g><defs><radialGradient id="_Radial2" cx="0" cy="0" r="1" gradientUnits="userSpaceOnUse" gradientTransform="matrix(474.317,1.16174e-13,-1.16174e-13,474.317,477.672,551.419)"><stop offset="0%" style="stop-color:#fff;stop-opacity:0.409192"/><stop offset="53%" style="stop-color:#0fa6ec;stop-opacity:0.409192"/><stop offset="100%" style="stop-color:#000;stop-opacity:0.0176514"/></radialGradient><radialGradient id="_Radial3" cx="0" cy="0" r="1" gradientUnits="userSpaceOnUse" gradientTransform="matrix(334.537,0,0,334.537,476.129,629.35)"><stop offset="0%" style="stop-color:#000;stop-opacity:0.25"/><stop offset="64%" style="stop-color:#000;stop-opacity:0.233333"/><stop offset="81%" style="stop-color:#000;stop-opacity:0.185294"/><stop offset="96%" style="stop-color:#000;stop-opacity:0.12549"/><stop offset="96%" style="stop-color:#000;stop-opacity:0.12549"/><stop offset="100%" style="stop-color:#010000;stop-opacity:0"/></radialGradient><radialGradient id="_Radial5" cx="0" cy="0" r="1" gradientUnits="userSpaceOnUse" gradientTransform="matrix(325.128,0,0,325.128,476.129,629.35)"><stop offset="0%" style="stop-color:#00b9e8;stop-opacity:0.271086"/><stop offset="65%" style="stop-color:#24c3eb;stop-opacity:0.271086"/><stop offset="84%" style="stop-color:#87def4;stop-opacity:0.271086"/><stop offset="100%" style="stop-color:#fff;stop-opacity:0.271086"/><stop offset="100%" style="stop-color:#fff;stop-opacity:0.271086"/></radialGradient></defs></svg>