<?xml version="1.0" standalone="no"?><!DOCTYPE svg PUBLIC "-//W3C//DTD SVG 1.1//EN" "http://www.w3.org/Graphics/SVG/1.1/DTD/svg11.dtd"><svg width="100%" height="100%" viewBox="0 0 428 174" version="1.1" xmlns="http://www.w3.org/2000/svg" xmlns:xlink="http://www.w3.org/1999/xlink" xml:space="preserve" style="fill-rule:evenodd;clip-rule:evenodd;stroke-linejoin:round;stroke-miterlimit:1.41421;"><g id="Gas Giant"><path id="Ellipse 2" d="M195.785,103.407c-11.475,-10.911 -11.933,-29.086 -1.021,-40.562c10.911,-11.475 29.086,-11.933 40.561,-1.021c11.475,10.911 11.933,29.086 1.022,40.561c-10.911,11.475 -29.086,11.933 -40.562,1.022Z" style="fill:url(#_Linear1);"/><clipPath id="_clip2"><path d="M195.785,103.407c-11.475,-10.911 -11.933,-29.086 -1.021,-40.562c10.911,-11.475 29.086,-11.933 40.561,-1.021c11.475,10.911 11.933,29.086 1.022,40.561c-10.911,11.475 -29.086,11.933 -40.562,1.022Z"/></clipPath><g clip-path="url(#_clip2)"><path id="Ellipse 21" d="M225.564,55.727c-14.84,-5.524 -31.373,2.04 -36.897,16.88c-5.524,14.84 2.04,31.373 16.88,36.896c14.84,5.524 31.373,-2.039 36.896,-16.879c5.524,-14.84 -2.039,-31.373 -16.879,-36.897Z" style="fill:url(#_Linear3);"/><clipPath id="_clip4"><path d="M225.564,55.727c-14.84,-5.524 -31.373,2.04 -36.897,16.88c-5.524,14.84 2.04,31.373 16.88,36.896c14.84,5.524 31.373,-2.039 36.896,-16.879c5.524,-14.84 -2.039,-31.373 -16.879,-36.897Z"/></clipPath><g clip-path="url(#_clip4)"><path id="Shape 2" d="M223.154,48.631c0,0 4.793,16.476 -1.144,11.62c-5.936,-4.856 -8.62,-5.994 -8.215,-1.705c0.404,4.289 -0.096,6.262 -0.997,7.49c-1.334,1.82 -2.199,-4.549 -5.52,-2.258c-3.852,2.658 -0.744,5.802 -0.744,5.802c0,0 -1.12,2.436 -2.67,0.186c-1.55,-2.25 -4.533,-5.948 -3.745,1.174c0.787,7.123 1.934,3.211 2.011,5.694c0.077,2.482 3.588,2.205 0.642,3.628c-2.947,1.424 -5.895,-2.9 -6.382,-1.519c-0.487,1.382 -0.516,2.668 0.265,5.439c0.781,2.77 0.331,3.167 -0.799,4.059c-1.131,0.892 -1.527,1.24 -1.594,3.511c-0.066,2.271 3.553,5.179 3.553,5.179c0,0 5.252,0.541 2.652,4.728c-2.601,4.187 5.333,6.637 2.024,9.512c-3.309,2.875 -11.099,6.605 -12.304,7.119c-1.205,0.514 -4.915,12.467 -8.88,6.149c-3.966,-6.319 -2.039,-11.361 -5.601,-7.422c-3.562,3.938 -3.83,6.629 -4.069,8.415c-0.239,1.786 4.121,5.148 -1.946,4.519c-6.068,-0.629 -5.191,5.031 -9.656,-3.819c-4.465,-8.849 -6.939,-12.652 -9.307,-4.724c-2.368,7.929 -2.371,11.822 -2.467,13.711c-0.097,1.888 -1.191,2.762 -4.259,-0.911c-3.069,-3.673 -6.008,-11.055 -6.102,-12.155c-0.095,-1.099 2.315,-4.943 -0.799,-4.951c-3.113,-0.008 -5.777,-7.103 -7.222,3.46c-1.444,10.562 0.895,12.757 -3.243,12.753c-4.137,-0.003 -2.963,-7.077 -4.225,-10.636c-1.263,-3.559 -3.908,-9.649 -2.684,-13.023c1.224,-3.374 0.841,-7.129 5.384,-8.049c4.542,-0.919 8.213,0.732 12.177,2.398c3.964,1.665 10.929,-1.551 13.107,-4.523c2.178,-2.972 9.975,-23.396 11.632,-26.092c1.657,-2.695 6.337,-9.841 11.375,-11.461c5.038,-1.62 4.448,-2.095 10.18,-3.223c5.733,-1.127 4.247,-1.029 8.491,-2.071c4.243,-1.041 3.925,0.39 8.188,-4.439c4.263,-4.829 2.626,-5.915 5.374,-5.592c2.748,0.324 4.78,0.736 6.502,1.115c1.722,0.38 8.541,1.311 8.541,1.311l2.476,-0.399Z" style="fill:#fff;fill-opacity:0.210843;"/><path id="Shape 21" d="M218.499,41.939c0,0 -3.722,13.766 -4.746,10.3c-1.025,-3.466 -1.871,-4.11 -3.235,-0.416c-1.364,3.694 -2.314,5.483 -3.181,6.673c-1.285,1.764 0.617,-3.686 -1.771,-1.25c-2.768,2.824 -2.45,5.165 -2.45,5.165c0,0 -1.408,2.274 -1.32,0.511c0.089,-1.763 0.03,-4.603 -2.181,1.515c-2.212,6.119 -0.257,2.552 -1.12,4.71c-0.863,2.159 0.884,1.458 -1.014,3.086c-1.897,1.628 -1.712,-1.764 -2.441,-0.493c-0.729,1.271 -1.209,2.398 -1.847,4.716c-0.638,2.318 -0.992,2.724 -1.845,3.65c-0.853,0.927 -1.165,1.283 -2.019,3.275c-0.855,1.993 -0.211,4.06 -0.211,4.06c0,0 2.267,-0.214 -0.47,3.784c-2.736,3.997 0.096,5.1 -2.497,8.044c-2.593,2.944 -7.597,7.22 -8.348,7.826c-0.751,0.606 -6.822,11.532 -6.392,6.531c0.43,-5.001 3.16,-9.657 0.063,-5.751c-3.097,3.906 -4.198,6.291 -4.957,7.883c-0.759,1.591 0.067,3.958 -2.55,4.201c-2.617,0.243 -4.257,5.073 -3.144,-2.074c1.113,-7.146 1.331,-10.145 -2.652,-2.91c-3.983,7.235 -5.395,10.636 -6.124,12.298c-0.73,1.663 -1.56,2.569 -1.668,-0.238c-0.107,-2.808 1.189,-8.873 1.543,-9.82c0.354,-0.948 2.876,-4.621 1.42,-4.221c-1.457,0.4 -0.136,-5.45 -4.64,3.966c-4.505,9.415 -4.203,11.026 -6.142,11.564c-1.938,0.537 1.175,-5.795 1.873,-8.739c0.697,-2.943 1.663,-7.918 3.46,-11.025c1.796,-3.107 2.977,-6.337 5.44,-7.734c2.463,-1.396 3.586,-0.434 4.841,0.503c1.256,0.937 5.686,-2.782 7.785,-5.663c2.098,-2.881 13.153,-21.741 14.907,-24.311c1.753,-2.571 6.537,-9.425 9.486,-11.499c2.949,-2.073 2.845,-2.411 5.942,-4.145c3.096,-1.734 2.364,-1.454 4.731,-2.918c2.367,-1.465 1.699,-0.173 5.448,-4.948c3.748,-4.775 3.374,-5.51 4.546,-5.587c1.171,-0.076 1.974,0.018 2.644,0.125c0.67,0.106 3.53,0.028 3.53,0.028l1.306,-0.672Z" style="fill:#fff;fill-opacity:0.319278;"/><path id="Shape 12" d="M246.751,69.616c0,0 -5.164,2.904 -6.53,2.59c-1.366,-0.314 -6.779,3.285 -4.801,4.98c1.979,1.695 4.461,2.557 5.469,3.781c1.008,1.225 -3.409,3.612 -3.269,4.677c0.14,1.065 -0.986,2.822 -0.194,3.748c0.791,0.925 5.939,0.488 2.146,1.563c-3.793,1.074 -4.134,0.722 -4.617,1.555c-0.483,0.833 -0.833,6.808 -2.257,7.236c-1.424,0.429 -4.215,-0.672 -5.42,1.366c-1.204,2.038 -0.865,3.085 -2.541,3.311c-1.676,0.225 -3.041,-0.017 -3.795,0.224c-0.754,0.242 -0.568,-2.698 -1.77,0.651c-1.201,3.349 -2.311,4.621 -4.361,3.507c-2.05,-1.115 -2.295,-3.778 -3.462,-0.962c-1.167,2.816 2.757,1.269 -4.015,2.871c-6.773,1.603 -7.169,3.304 -7.998,4.772c-0.829,1.469 17.759,2.136 17.759,2.136l22.497,-8.543l10.367,-24.626l-3.208,-14.837Z" style="fill:#87439a;fill-opacity:0.501961;"/><path id="Shape 121" d="M250.942,70.085c0,0 -5.164,2.904 -6.53,2.589c-1.366,-0.314 -6.779,3.285 -4.8,4.98c1.978,1.695 4.46,2.557 5.468,3.782c1.008,1.224 -3.409,3.612 -3.269,4.677c0.14,1.065 -0.986,2.822 -0.194,3.747c0.791,0.926 5.939,0.489 2.146,1.563c-3.793,1.075 -4.133,0.723 -4.617,1.556c-0.483,0.833 -0.833,6.808 -2.257,7.236c-1.424,0.428 -4.215,-0.672 -5.419,1.366c-1.205,2.038 -0.866,3.085 -2.542,3.31c-1.676,0.226 -3.04,-0.016 -3.795,0.225c-0.754,0.241 -0.568,-2.698 -1.77,0.651c-1.201,3.349 -2.31,4.621 -4.361,3.506c-2.05,-1.114 -2.295,-3.777 -3.462,-0.961c-1.167,2.816 2.757,1.268 -4.015,2.871c-6.773,1.602 -7.168,3.304 -7.997,4.772c-0.829,1.468 17.758,2.135 17.758,2.135l22.498,-8.542l10.367,-24.627l-3.209,-14.836Z" style="fill:#2d2820;fill-opacity:0.194733;"/><path id="Ellipse 3" d="M213.652,70.283c-1.64,-0.61 -3.468,0.226 -4.078,1.866c-0.611,1.64 0.225,3.467 1.865,4.078c1.641,0.61 3.468,-0.226 4.078,-1.866c0.611,-1.64 -0.225,-3.467 -1.865,-4.078Z" style="fill:#87439a;fill-opacity:0.557086;"/><path id="Ellipse 4" d="M208.451,77.952c-0.926,-0.345 -1.957,0.127 -2.302,1.053c-0.345,0.926 0.127,1.957 1.053,2.302c0.926,0.344 1.957,-0.127 2.302,-1.053c0.345,-0.926 -0.127,-1.958 -1.053,-2.302Z" style="fill:#87439a;fill-opacity:0.680722;"/><path id="Shape 3" d="M223.513,64.022c0,0 0.307,-2.281 -3.42,-3.128c-3.727,-0.847 -3.693,-3.115 -3.899,1.386c-0.206,4.502 -1.581,8.804 1.37,7.168c2.951,-1.636 5.949,-5.426 5.949,-5.426Z" style="fill:#87439a;fill-opacity:0.75;"/><path id="Shape 4" d="M211.514,67.523c-1.582,-0.713 -2.613,-1.503 -3.101,-0.172c-0.488,1.331 -1.294,4.336 -0.279,3.389c1.015,-0.947 4.962,-2.503 3.38,-3.217Z" style="fill:#87439a;fill-opacity:0.75;"/><path id="Shape 5" d="M206.956,73.903c0,0 -2.335,-2.982 -3.49,-2.936c-1.155,0.046 -0.591,3.054 -0.591,3.054c0,0 -0.229,4.405 1.718,2.713c1.947,-1.691 2.46,-0.012 2.363,-2.831Z" style="fill:#87439a;"/><path id="Shape 6" d="M205.003,82.671c-1.131,-0.05 -1.44,-0.961 -3.055,-0.591c-1.614,0.37 -3.265,1.742 -2.648,3.598c0.616,1.855 0.349,6.253 3.517,4.037c3.168,-2.215 3.572,-2.697 3.367,-3.767c-0.205,-1.069 -0.051,-3.227 -1.181,-3.277Z" style="fill:#87439a;fill-opacity:0.5;"/><path id="Shape 7" d="M245.365,65.717c0,0 -11.833,4.735 -13.988,2.979c-2.154,-1.757 -6.095,-6.28 -5.385,-8.989c0.71,-2.71 0.741,-5.509 0.741,-5.509l18.632,11.519Z" style="fill:#c79bd4;fill-opacity:0.271086;"/><path id="Shape 8" d="M202.723,95.246c0.373,-1.049 1.045,-3.933 -0.381,-3.961c-1.426,-0.028 -1.474,1.513 -2.575,-0.413c-1.101,-1.926 -1.894,-4.1 -2.34,-2.508c-0.447,1.592 -2.459,2.402 -1.296,3.774c1.163,1.372 1.685,3.29 2.989,3.405c1.304,0.115 3.23,0.753 3.603,-0.297Z" style="fill:#87439a;fill-opacity:0.445784;"/><path id="Shape 9" d="M209.645,76.65c-0.629,-0.942 -1.643,-1.157 -1.643,-1.157c0,0 -2.13,1.17 -1.122,1.547c1.009,0.376 3.393,0.552 2.765,-0.39Z" style="fill:#87439a;fill-opacity:0.319278;"/><path id="Shape 10" d="M202.565,69.868l-0.829,-1.291c0,0 -1.371,0.743 -1.001,1.81c0.37,1.066 0.974,1.781 0.974,1.781l0.856,-2.3Z" style="fill:#87439a;fill-opacity:0.566267;"/><path id="Shape 11" d="M225.978,68.541c0,0 0.637,4.697 -0.551,4.707c-1.189,0.009 -3.263,0.953 -3.558,-0.997c-0.296,-1.951 0.266,-2.809 1.177,-3.164c0.912,-0.355 2.932,-0.546 2.932,-0.546Z" style="fill:#87439a;fill-opacity:0.286145;"/></g><path id="Ellipse 22" d="M195.768,103.425c-11.486,-10.921 -11.944,-29.112 -1.023,-40.597c10.921,-11.486 29.112,-11.944 40.598,-1.023c11.485,10.921 11.943,29.112 1.022,40.598c-10.921,11.485 -29.112,11.943 -40.597,1.022Z" style="fill:url(#_Linear5);"/></g><path d="M195.785,103.407c-11.475,-10.911 -11.933,-29.086 -1.021,-40.562c10.911,-11.475 29.086,-11.933 40.561,-1.021c11.475,10.911 11.933,29.086 1.022,40.561c-10.911,11.475 -29.086,11.933 -40.562,1.022Z" style="fill:none;stroke-width:0.75px;stroke:#190629;"/><path d="M240.146,60.541c100.14,-32.621 178.866,-52.033 181.515,-44.206c2.923,8.634 -87.814,47.159 -202.498,85.979c-114.685,38.819 -210.167,63.326 -213.089,54.693c-2.689,-7.945 73.933,-41.202 175.544,-76.709" style="fill:none;stroke-width:0.75px;stroke:#9e1f8a;stroke-opacity:0.07;"/><path d="M240.543,60.927c93.224,-31.599 166.287,-50.546 168.865,-43.236c2.866,8.124 -82.426,45.629 -190.347,83.7c-107.922,38.072 -197.868,62.385 -200.734,54.26c-2.621,-7.431 68.518,-39.445 163.267,-73.988" style="fill:none;stroke-width:0.75px;stroke:#9e1f8a;stroke-opacity:0.15;"/><path d="M238.91,63.625c86.609,-29.434 154.376,-47.408 156.617,-41.057c2.49,7.058 -76.913,41.513 -177.204,76.893c-100.292,35.38 -183.738,58.372 -186.228,51.313c-2.277,-6.456 63.963,-35.835 152.035,-67.876" style="fill:none;stroke-width:0.75px;stroke:#9e1f8a;stroke-opacity:0.15;"/></g><defs><linearGradient id="_Linear1" x1="0" y1="0" x2="1" y2="0" gradientUnits="userSpaceOnUse" gradientTransform="matrix(42.6753,19.3581,-19.3581,42.6753,197.736,72.9173)"><stop offset="0%" style="stop-color:#1a062b;stop-opacity:0"/><stop offset="100%" style="stop-color:#170428;stop-opacity:1"/><stop offset="100%" style="stop-color:#170428;stop-opacity:1"/></linearGradient><linearGradient id="_Linear3" x1="0" y1="0" x2="1" y2="0" gradientUnits="userSpaceOnUse" gradientTransform="matrix(-53.7764,-20.0166,-20.0166,53.7764,242.443,92.6236)"><stop offset="0%" style="stop-color:#7100ff;stop-opacity:1"/><stop offset="100%" style="stop-color:#cc3365;stop-opacity:1"/></linearGradient><linearGradient id="_Linear5" x1="0" y1="0" x2="1" y2="0" gradientUnits="userSpaceOnUse" gradientTransform="matrix(-31.667,-35.0287,35.0287,-31.667,235.343,102.403)"><stop offset="0%" style="stop-color:#170428;stop-opacity:1"/><stop offset="100%" style="stop-color:#cc3365;stop-opacity:0"/></linearGradient></defs></svg>