<?xml version="1.0" standalone="no"?><!DOCTYPE svg PUBLIC "-//W3C//DTD SVG 1.1//EN" "http://www.w3.org/Graphics/SVG/1.1/DTD/svg11.dtd"><svg width="100%" height="100%" viewBox="0 0 127 127" version="1.1" xmlns="http://www.w3.org/2000/svg" xmlns:xlink="http://www.w3.org/1999/xlink" xml:space="preserve" style="fill-rule:evenodd;clip-rule:evenodd;stroke-linejoin:round;stroke-miterlimit:1.41421;"><circle id="Moon" cx="63.166" cy="63.166" r="63.166" style="fill:url(#_Radial1);"/><clipPath id="_clip2"><circle cx="63.166" cy="63.166" r="63.166"/></clipPath><g clip-path="url(#_clip2)"><path d="M73.589,-12.792c0,0 -22.545,30.315 -6.566,24.855c15.98,-5.461 22.391,-5.748 18.262,2.792c-4.129,8.539 -4.612,12.994 -3.696,16.22c1.355,4.779 8.032,-7.697 13.124,-0.418c5.905,8.441 -2.923,12.542 -2.923,12.542c0,0 0.441,5.886 5.368,2.434c4.927,-3.453 13.921,-8.791 6.826,5.3c-7.095,14.091 -6.457,5.139 -8.523,10.202c-2.066,5.063 -9.097,1.795 -4.111,6.994c4.986,5.2 14.39,-1.458 14.334,1.767c-0.056,3.225 -0.984,5.902 -4.722,11.019c-3.739,5.116 -3.117,6.281 -1.469,8.989c1.647,2.708 2.197,3.731 0.591,8.468c-1.607,4.737 -11.308,7.957 -11.308,7.957c0,0 -11.253,-2.918 -9.103,7.72c2.151,10.637 -16.101,9.598 -11.482,18.071c4.619,8.474 17.828,22.154 19.919,24.139c2.092,1.985 0.567,29.499 13.602,19.507c13.035,-9.991 12.931,-21.876 17.256,-11.013c4.325,10.863 2.812,16.62 1.933,20.489c-0.879,3.87 -12.457,7.457 0.546,10.819c13.002,3.362 6.846,14.368 22.855,-0.463c16.009,-14.831 24.035,-20.778 22.832,-2.599c-1.204,18.178 -4.187,26.212 -5.439,30.183c-1.252,3.972 0.334,6.615 9.487,1.393c9.152,-5.223 20.886,-18.198 21.925,-20.394c1.04,-2.196 -0.98,-11.977 5.45,-9.602c6.431,2.374 17.377,-10.219 12.246,12.685c-5.132,22.904 -11.644,25.635 -3.104,28.805c8.54,3.171 11.549,-12.327 16.888,-18.7c5.337,-6.374 15.473,-16.909 15.539,-24.811c0.066,-7.902 3.739,-15.356 -4.927,-20.741c-8.666,-5.385 -17.51,-4.798 -26.968,-4.406c-9.457,0.392 -21.358,-11.593 -23.57,-19.398c-2.212,-7.806 -2.613,-55.936 -3.961,-62.77c-1.349,-6.834 -5.517,-25.174 -14.668,-32.386c-9.151,-7.211 -7.57,-7.739 -18.532,-14.468c-10.962,-6.729 -7.971,-5.385 -15.928,-10.793c-7.956,-5.409 -8.4,-2.211 -13.486,-15.45c-5.086,-13.238 -0.875,-14.221 -6.794,-15.664c-5.919,-1.443 -10.429,-2.153 -14.272,-2.693c-3.844,-0.54 -18.63,-3.856 -18.63,-3.856l-4.801,-2.725Z" style="fill:#aca599;fill-opacity:0.626506;fill-rule:nonzero;"/><path d="M8.782,12.386c0,0 8.425,9.957 11.485,10.358c3.06,0.401 11.465,11.985 6.08,13.962c-5.384,1.978 -11.166,1.851 -14.187,3.603c-3.02,1.753 4.259,10.071 3.153,12.161c-1.106,2.09 -0.132,6.58 -2.477,7.881c-2.345,1.302 -12.631,-3.553 -5.63,1.577c7.001,5.13 7.975,4.665 8.332,6.756c0.358,2.09 -3.51,14.686 -0.901,16.664c2.61,1.977 9.214,1.851 10.134,6.981c0.921,5.13 -0.583,7.03 2.702,8.782c3.285,1.752 6.286,2.301 7.657,3.378c1.371,1.077 3.245,-5.13 3.153,2.702c-0.093,7.833 1.218,11.309 6.305,10.584c5.087,-0.725 7.637,-6.031 7.882,0.676c0.245,6.706 -6.663,0.5 6.08,9.008c12.743,8.508 12.253,12.322 12.836,15.988c0.583,3.667 -38.283,-9.233 -38.283,-9.233l-39.859,-34.904l-2.477,-58.775l18.015,-28.149Z" style="fill:#b3aea4;fill-opacity:0.626506;fill-rule:nonzero;"/><circle cx="76.565" cy="46.164" r="6.981" style="fill:#c4beb6;fill-opacity:0.626506;"/><circle cx="81.407" cy="62.941" r="3.941" style="fill:#bdb7ad;fill-opacity:0.626506;"/><path d="M61.027,18.691c0,0 1.117,-4.942 9.458,-3.828c8.341,1.114 10.012,-3.591 6.981,5.855c-3.031,9.446 -3.499,19.378 -8.332,13.736c-4.833,-5.641 -8.107,-15.763 -8.107,-15.763Z" style="fill:#b2ac9f;fill-opacity:0.626506;fill-rule:nonzero;"/><path d="M83.096,35.13c3.812,-0.257 6.547,-1.094 6.53,2.027c-0.016,3.121 -0.659,9.94 -2.026,7.206c-1.368,-2.734 -8.316,-8.976 -4.504,-9.233Z" style="fill:#bfbab0;fill-opacity:0.626506;fill-rule:nonzero;"/><path d="M87.6,51.794c0,0 7.109,-4.359 9.458,-3.378c2.348,0.982 -1.126,6.756 -1.126,6.756c0,0 -2.912,9.265 -5.63,4.279c-2.719,-4.986 -5.067,-1.914 -2.702,-7.657Z" style="fill:#b9b3a8;fill-opacity:0.626506;fill-rule:nonzero;"/><path d="M84.897,71.386c2.371,0.765 3.71,-0.878 6.756,1.126c3.046,2.004 5.399,6.103 2.702,9.458c-2.696,3.355 -5.523,12.634 -10.358,5.63c-4.836,-7.004 -5.299,-8.31 -4.054,-10.359c1.245,-2.05 2.584,-6.62 4.954,-5.855Z" style="fill:#c1bdb3;fill-opacity:0.626506;fill-rule:nonzero;"/><path d="M79.943,99.084c0.036,-2.453 0.865,-8.919 3.828,-7.881c2.964,1.037 1.878,4.254 5.63,1.126c3.752,-3.129 7.058,-7.005 6.756,-3.378c-0.302,3.627 3.229,6.844 -0.225,8.782c-3.455,1.938 -6.004,5.493 -8.783,4.729c-2.779,-0.764 -7.242,-0.925 -7.206,-3.378Z" style="fill:#bab5ab;fill-opacity:0.626506;fill-rule:nonzero;"/><path d="M79.943,55.397c2.021,-1.461 4.279,-1.126 4.279,-1.126c0,0 3.496,4.051 1.126,4.054c-2.371,0.002 -7.426,-1.466 -5.405,-2.928Z" style="fill:#c5c0b7;fill-opacity:0.626506;fill-rule:nonzero;"/><path d="M99.76,46.84l2.702,-2.027c0,0 2.258,2.588 0.676,4.504c-1.583,1.916 -3.378,2.928 -3.378,2.928l0,-5.405Z" style="fill:#bcb6ac;fill-opacity:0.626506;fill-rule:nonzero;"/><path d="M52.47,26.122c0,0 -4.922,9.202 -2.477,10.134c2.444,0.932 5.999,4.473 8.106,0.675c2.108,-3.797 1.609,-5.998 0,-7.431c-1.608,-1.433 -5.629,-3.378 -5.629,-3.378Z" style="fill:#c0bbb0;fill-opacity:0.626506;fill-rule:nonzero;"/><path d="M14.637,5.405c0,0 20.778,18.859 26.573,16.889c5.795,-1.97 17.4,-8.277 18.015,-14.412c0.616,-6.136 2.703,-11.935 2.703,-11.935l-47.291,9.458Z" style="fill:#d6d3c9;fill-opacity:0.626506;fill-rule:nonzero;"/><circle cx="63.166" cy="63.166" r="63.166" style="fill:url(#_Linear3);"/></g><circle cx="63.166" cy="63.166" r="63.166" style="fill:none;stroke-width:0.75px;stroke:#190629;"/><defs><radialGradient id="_Radial1" cx="0" cy="0" r="1" gradientUnits="userSpaceOnUse" gradientTransform="matrix(37.612,47.6233,-47.6233,37.612,25.3062,14.6498)"><stop offset="0%" style="stop-color:#bab6ae;stop-opacity:1"/><stop offset="100%" style="stop-color:#ceccc5;stop-opacity:1"/></radialGradient><linearGradient id="_Linear3" x1="0" y1="0" x2="1" y2="0" gradientUnits="userSpaceOnUse" gradientTransform="matrix(-53.8874,64.3076,-64.3076,-53.8874,85.6647,34.3909)"><stop offset="0%" style="stop-color:#1a062b;stop-opacity:0"/><stop offset="100%" style="stop-color:#170428;stop-opacity:0.843137"/><stop offset="100%" style="stop-color:#170428;stop-opacity:0.843137"/></linearGradient></defs></svg>